<svg width="295" height="64" viewBox="0 0 295 64" fill="none" xmlns="http://www.w3.org/2000/svg">
<path d="M1.14 38.0299C0.455999 38.0299 0 37.5722 0 36.8858V14.0046C0 13.6613 0.228 13.2037 0.569999 12.9749L12.198 5.7673C12.768 5.42409 13.452 5.6529 13.794 6.11052C14.136 6.68255 13.908 7.36899 13.452 7.71221L2.394 14.5766V36.8858C2.28 37.5722 1.824 38.0299 1.14 38.0299Z" fill="#28348C"/>
<path d="M53.3521 24.5298C52.6682 24.5298 52.2122 24.0722 52.2122 23.3857V14.6909L29.1842 2.22058C28.6142 1.87736 28.3862 1.19092 28.7282 0.618887C29.0702 0.0468553 29.7542 -0.181959 30.3242 0.16126L54.0361 12.9748C54.3781 13.2036 54.6061 13.5468 54.6061 14.0044V23.3857C54.4921 23.9578 54.0361 24.5298 53.3521 24.5298Z" fill="#28348C"/>
<path d="M27.2462 64C27.0182 64 26.7902 64 26.6762 63.8855L16.7583 57.822C16.1883 57.4788 16.0743 56.7924 16.4163 56.2203C16.7583 55.6483 17.4422 55.5339 18.0122 55.8771L27.2462 61.5974L52.7822 45.5805C53.3522 45.2373 54.0362 45.4661 54.3782 45.9238C54.7202 46.4958 54.6062 47.1822 54.0362 47.5254L27.8162 63.8855C27.7022 64 27.4742 64 27.2462 64Z" fill="#28348C"/>
<path d="M27.3597 63.5424C26.6757 63.5424 26.2197 63.0848 26.2197 62.3983V31.051L0.569774 14.9197C-0.000225116 14.5765 -0.114224 13.89 0.227775 13.318C0.569775 12.746 1.25377 12.6316 1.82377 12.9748L28.0437 29.3349C28.3857 29.5637 28.6137 29.9069 28.6137 30.2502V62.2839C28.4997 63.0848 27.9297 63.5424 27.3597 63.5424Z" fill="#28348C"/>
<path d="M27.3597 31.5086C27.0177 31.5086 26.5617 31.2798 26.4477 30.9366C26.1057 30.3646 26.2197 29.6781 26.7897 29.3349L52.4397 12.9748C53.0097 12.6316 53.6937 12.746 54.0357 13.318C54.3777 13.89 54.2637 14.5765 53.6937 14.9197L27.9297 31.3942C27.7017 31.5086 27.4737 31.5086 27.3597 31.5086Z" fill="#28348C"/>
<path d="M18.2402 7.48339L14.7062 9.65711L10.9442 7.59779V3.36476L14.5922 1.19104L18.2402 3.25035V7.48339Z" fill="#FAC800"/>
<path d="M21.09 59.1949L17.442 61.3687L13.7941 59.3093L13.6801 55.0763L17.328 52.9026L20.976 54.9619L21.09 59.1949Z" fill="#FAC800"/>
<path d="M57.0001 25.4451L53.4661 27.5044L49.8181 25.4451L49.7041 21.3264L53.3521 19.1527L57.0001 21.212V25.4451Z" fill="#FAC800"/>
<path d="M295 20.3119V17.3616C295 16.6808 294.435 16.1134 293.756 16.1134H264.352C263.674 16.1134 263.108 16.6808 263.108 17.3616V22.5813C263.108 23.2621 263.674 23.8295 264.352 23.8295H279.733L261.412 42.5523C261.185 42.7793 261.072 43.1197 261.072 43.4601V46.6373C261.072 47.3181 261.638 47.8855 262.316 47.8855H293.756C294.435 47.8855 295 47.3181 295 46.6373V41.0772C295 40.3964 294.435 39.829 293.756 39.829H276.114L294.661 21.1062C294.887 20.9927 295 20.6523 295 20.3119Z" fill="#28348C"/>
<path d="M255.757 29.0492H246.371C245.918 29.0492 245.466 29.5031 245.466 29.957V34.1554C245.466 34.6093 245.918 35.0632 246.371 35.0632H255.757C256.21 35.0632 256.662 34.6093 256.662 34.1554V29.957C256.662 29.5031 256.21 29.0492 255.757 29.0492Z" fill="#FAC800"/>
<path d="M104.666 31.6581C106.701 30.2964 107.154 28.1404 107.154 26.6653V23.0342C107.154 20.4244 106.136 16.1124 99.2374 16.1124H74.244C73.5655 16.1124 73 16.6798 73 17.3606V46.7498C73 47.4306 73.5655 47.998 74.244 47.998H97.541C105.684 47.998 107.493 44.14 107.493 40.9627V37.2182C107.38 35.2892 106.815 33.0197 104.666 31.6581ZM82.1605 35.2892H96.4101C97.6541 35.2892 98.1065 35.5161 98.2196 35.5161C98.2196 35.5161 98.4458 35.743 98.4458 36.5373V38.8068C98.4458 39.6011 98.2196 39.828 98.3327 39.828C98.2196 39.9415 97.7672 40.1684 96.5232 40.1684H82.1605V35.2892ZM98.2196 27.1192C98.2196 27.3461 98.2196 27.9135 96.4101 27.9135H82.1605V23.4881H96.4101C98.2196 23.4881 98.2196 24.0554 98.2196 24.2824V27.1192V27.1192Z" fill="#28348C"/>
<path d="M147.98 39.9434H127.284V17.3626C127.284 16.6817 126.719 16.1144 126.04 16.1144H119.255C118.576 16.1144 118.01 16.6817 118.01 17.3626V46.7518C118.01 47.4326 118.576 47.9999 119.255 47.9999H147.98C148.659 47.9999 149.224 47.4326 149.224 46.7518V41.1916C149.337 40.5108 148.659 39.9434 147.98 39.9434Z" fill="#28348C"/>
<path d="M185.074 16.1144H163.474C160.307 16.1144 158.158 16.6817 156.914 17.8165C155.557 19.0646 154.879 21.1071 154.879 24.2843V39.7165C154.879 42.8937 155.557 44.9362 156.801 46.1844C158.045 47.3191 160.194 47.8865 163.361 47.8865H184.961C188.128 47.8865 190.277 47.3191 191.521 46.1844C192.878 44.9362 193.556 42.8937 193.556 39.7165V24.3978C193.556 21.2206 192.878 19.1781 191.521 17.9299C190.39 16.6817 188.241 16.1144 185.074 16.1144ZM184.283 39.9435H164.379V23.9439H184.283V39.9435Z" fill="#28348C"/>
<path d="M242.751 45.7296L222.395 31.2052L240.376 18.3829C240.829 18.0425 241.055 17.4751 240.829 16.9078C240.716 16.3404 240.15 16 239.585 16H229.746C229.519 16 229.18 16.1135 228.954 16.2269L214.817 26.8933V17.2482C214.817 16.5674 214.252 16 213.573 16H206.675C205.996 16 205.431 16.5674 205.431 17.2482V46.6374C205.431 47.3182 205.996 47.8856 206.675 47.8856H213.573C214.252 47.8856 214.817 47.3182 214.817 46.6374V36.198L230.311 47.6586C230.537 47.7721 230.763 47.8856 231.103 47.8856H242.073C242.638 47.8856 243.091 47.5451 243.317 46.9778C243.43 46.6374 243.317 46.07 242.751 45.7296Z" fill="#28348C"/>
</svg>
