<svg width="509" height="161" viewBox="0 0 509 161" fill="none" xmlns="http://www.w3.org/2000/svg">
<path d="M195.609 46.2393L195.976 37.3161H195.517L186.432 52.2187H184.505L174.961 37.3161H174.594L175.052 45.3193V76.5964H164.499V19.5618H175.787L185.514 35.3843H185.881L195.517 19.5618H206.713V76.5964H195.609V46.2393Z" fill="#2F2F2F"/>
<path d="M257.553 72.2728C256.819 72.9167 255.901 73.5607 254.8 74.2046C253.699 74.8485 252.414 75.4005 250.854 75.9524C249.386 76.5044 247.734 76.9643 245.898 77.2403C244.155 77.6083 242.228 77.7003 240.209 77.7003C236.721 77.7003 233.601 77.2403 230.94 76.2284C228.187 75.2165 225.893 73.8366 223.966 71.9968C222.038 70.157 220.662 67.8572 219.652 65.1894C218.643 62.5217 218.184 59.578 218.184 56.1743C218.184 52.5866 218.735 49.4589 219.928 46.7912C221.029 44.1234 222.589 41.8236 224.608 40.0758C226.627 38.328 228.921 36.9481 231.582 36.0282C234.244 35.1083 237.089 34.6483 240.209 34.6483C242.228 34.6483 244.43 34.9243 246.632 35.4762C248.835 36.0282 250.854 36.9481 252.689 38.328C254.525 39.6158 255.993 41.4557 257.186 43.6635C258.379 45.8713 258.93 48.723 258.93 52.1267C258.93 54.4265 258.654 57.0022 258.104 59.67H228.829C228.921 61.4178 229.288 62.8897 229.931 64.0855C230.573 65.2814 231.491 66.2933 232.592 67.0293C233.693 67.7652 234.978 68.3172 236.446 68.6851C237.914 69.0531 239.383 69.2371 241.035 69.2371C244.247 69.2371 247 68.8691 249.018 68.1332C251.129 67.3972 252.781 66.4773 254.066 65.3734L257.553 72.2728ZM240.025 43.2035C238.649 43.2035 237.272 43.3875 236.079 43.7555C234.794 44.1234 233.693 44.6754 232.684 45.5033C231.674 46.2392 230.848 47.1591 230.206 48.263C229.563 49.3669 229.196 50.6548 229.105 52.0347H249.11C249.11 49.3669 248.376 47.1591 246.908 45.5953C245.439 44.0314 243.054 43.2035 240.025 43.2035Z" fill="#2F2F2F"/>
<path d="M270.125 35.9362H282.606L283.799 41.2717H284.166C285.451 39.5239 287.194 38.052 289.489 36.6722C291.783 35.3843 294.628 34.7404 297.84 34.7404C299.859 34.7404 301.694 35.0163 303.529 35.5683C305.273 36.1202 306.833 37.0401 308.026 38.236C309.311 39.5239 310.229 41.1798 310.963 43.2956C311.697 45.4114 312.064 48.0791 312.064 51.2068V76.5044H301.51V53.5066C301.51 50.1949 300.776 47.8031 299.308 46.3313C297.84 44.8594 295.913 44.1235 293.618 44.1235C291.599 44.1235 289.764 44.6754 288.112 45.8713C286.46 47.0672 285.359 48.4471 284.717 50.1949V76.5964H274.163V44.8594H266.73L270.125 35.9362Z" fill="#2F2F2F"/>
<path d="M330.05 44.8594H321.975V35.9362H330.05V26.6451L340.604 23.6094V35.9362H363.546L360.242 44.8594H340.604V56.5423C340.604 60.6819 341.43 63.7176 342.99 65.6494C344.55 67.4892 346.752 68.5011 349.597 68.5011C351.065 68.5011 352.35 68.3172 353.543 67.9492C354.736 67.5812 355.837 67.1213 356.755 66.5693C357.673 66.0174 358.59 65.4654 359.325 64.8215C360.151 64.1776 360.793 63.5336 361.435 63.0737L366.299 70.433C365.381 71.5369 364.188 72.5488 362.812 73.3767C361.435 74.2966 359.967 75.0325 358.315 75.7685C356.755 76.4124 355.011 76.9644 353.36 77.3323C351.616 77.7003 349.872 77.8843 348.221 77.8843C342.164 77.8843 337.575 76.2284 334.547 72.8247C331.519 69.4211 329.959 64.0856 329.959 56.6343V44.8594H330.05Z" fill="#2F2F2F"/>
<path d="M372.081 19.5618H386.855V40.4438H387.222C388.507 38.696 390.251 37.3161 392.453 36.3042C394.656 35.2923 397.134 34.7403 400.07 34.7403C402.089 34.7403 404.016 35.0163 405.76 35.5683C407.503 36.1202 408.972 37.0401 410.257 38.236C411.541 39.5239 412.459 41.1797 413.193 43.2955C413.927 45.4113 414.294 48.0791 414.294 51.2068V76.5044H403.741V53.5066C403.741 50.1949 403.007 47.8031 401.63 46.3312C400.254 44.8594 398.418 44.1235 396.124 44.1235C394.105 44.1235 392.27 44.7674 390.618 45.9633C388.966 47.1592 387.773 48.723 387.039 50.6548V76.6884H376.485V28.5769H368.96L372.081 19.5618Z" fill="#2F2F2F"/>
<path d="M426.225 56.2663C426.225 52.8626 426.775 49.8269 427.785 47.1592C428.794 44.4914 430.262 42.2836 432.19 40.3518C434.117 38.512 436.319 37.1321 438.98 36.1202C441.642 35.2003 444.578 34.7404 447.79 34.7404C451.186 34.7404 454.214 35.2923 456.967 36.3042C459.629 37.3161 461.923 38.788 463.758 40.6278C465.594 42.4676 466.97 44.7674 467.98 47.4352C468.897 50.1029 469.356 53.0466 469.356 56.2663C469.356 59.67 468.805 62.7057 467.796 65.3735C466.787 68.0412 465.318 70.249 463.391 72.1808C461.464 74.0206 459.261 75.4005 456.6 76.4124C453.939 77.3323 451.002 77.7923 447.79 77.7923C444.395 77.7923 441.366 77.2403 438.613 76.2284C435.952 75.2165 433.658 73.7447 431.823 71.9048C429.987 70.065 428.611 67.7652 427.601 65.0975C426.683 62.4297 426.225 59.486 426.225 56.2663ZM437.145 56.2663C437.145 58.0142 437.42 59.762 437.879 61.2339C438.338 62.7977 439.072 64.0856 439.99 65.1895C440.908 66.2934 442.009 67.2133 443.294 67.8572C444.578 68.5012 446.047 68.7771 447.79 68.7771C450.91 68.7771 453.48 67.7652 455.499 65.7414C457.518 63.7176 458.436 60.5899 458.436 56.1743C458.436 52.4027 457.518 49.367 455.682 47.0672C453.847 44.7674 451.186 43.5715 447.79 43.5715C446.23 43.5715 444.854 43.8475 443.569 44.3075C442.284 44.7674 441.183 45.5033 440.174 46.5152C439.256 47.5271 438.522 48.815 437.971 50.4709C437.42 52.1267 437.145 54.0585 437.145 56.2663Z" fill="#2F2F2F"/>
<path d="M475.596 19.5618H491.197V57.1862C491.197 61.3258 491.747 64.2696 492.757 65.9254C493.766 67.5812 495.418 68.4092 497.712 68.4092C499.364 68.4092 500.741 68.2252 501.842 67.8572C502.943 67.4893 504.044 67.0293 505.054 66.3854L509 73.7447C508.082 74.3886 507.165 74.9406 506.247 75.4005C505.329 75.9525 504.32 76.3204 503.31 76.6884C502.301 77.0564 501.2 77.3323 499.915 77.5163C498.722 77.7003 497.345 77.7923 495.785 77.7923C490.738 77.7923 486.884 76.5044 484.314 73.8367C481.745 71.1689 480.46 67.5812 480.46 62.7977V28.5769H472.017L475.596 19.5618Z" fill="#2F2F2F"/>
<path d="M164.591 110.376C164.591 110.008 164.591 109.548 164.591 108.904C164.591 108.352 164.499 107.708 164.499 107.064C164.499 106.42 164.407 105.776 164.316 105.224C164.224 104.672 164.224 104.12 164.132 103.66H160.094V99.7046H168.17L168.812 103.936H169.088C170.189 102.556 171.565 101.36 173.217 100.349C174.869 99.4287 176.98 98.8767 179.366 98.8767C183.679 98.8767 186.983 100.073 189.185 102.464C191.388 104.856 192.489 108.812 192.489 114.239C192.489 116.815 192.122 119.115 191.388 121.139C190.653 123.162 189.552 124.91 188.176 126.382C186.799 127.762 185.147 128.866 183.22 129.694C181.293 130.522 179.09 130.89 176.796 130.89C175.97 130.89 175.144 130.89 174.502 130.798C173.86 130.706 173.217 130.614 172.667 130.522C172.116 130.43 171.565 130.246 171.015 130.154C170.464 130.062 169.914 129.786 169.271 129.51V142.389H164.591V110.376ZM178.632 103.476C177.439 103.476 176.246 103.66 175.236 104.12C174.135 104.58 173.217 105.132 172.391 105.868C171.565 106.604 170.923 107.432 170.372 108.26C169.822 109.18 169.546 110.008 169.363 110.928V124.91C170.281 125.554 171.29 126.014 172.391 126.382C173.493 126.75 174.961 126.934 176.796 126.934C180.008 126.934 182.669 125.83 184.597 123.714C186.524 121.599 187.533 118.471 187.533 114.331C187.533 110.928 186.891 108.26 185.514 106.328C184.046 104.488 181.752 103.476 178.632 103.476Z" fill="#2F2F2F"/>
<path d="M204.144 130.246V126.198H212.403V103.844H204.144V99.7966H215.523L216.532 103.752H216.808C218.184 102.464 219.744 101.452 221.396 100.533C223.14 99.6127 225.159 99.1527 227.453 99.1527C228.829 99.1527 229.931 99.4287 230.757 99.9806C231.582 100.533 232.225 101.269 232.684 102.28C233.143 103.292 233.418 104.488 233.601 105.96C233.785 107.432 233.877 108.996 233.877 110.836L229.655 110.928C229.655 108.352 229.38 106.42 228.921 105.224C228.371 104.028 227.453 103.384 226.168 103.384C224.883 103.384 223.782 103.568 222.773 103.936C221.763 104.304 220.846 104.764 220.111 105.316C219.377 105.868 218.735 106.328 218.184 106.88C217.634 107.432 217.267 107.892 216.991 108.26V126.198H228.646V130.246H204.144Z" fill="#2F2F2F"/>
<path d="M244.98 114.975C244.98 110.1 246.265 106.144 248.835 103.292C251.404 100.44 255.075 98.9686 259.755 98.9686C262.325 98.9686 264.527 99.4286 266.363 100.257C268.198 101.084 269.758 102.188 270.951 103.66C272.144 105.04 273.062 106.788 273.612 108.72C274.163 110.652 274.53 112.767 274.53 114.975C274.53 117.459 274.163 119.575 273.521 121.598C272.878 123.53 271.961 125.278 270.676 126.658C269.391 128.038 267.831 129.142 265.996 129.878C264.16 130.614 262.05 130.982 259.664 130.982C257.186 130.982 254.983 130.522 253.056 129.694C251.221 128.866 249.661 127.762 248.468 126.29C247.275 124.91 246.357 123.162 245.715 121.231C245.256 119.299 244.98 117.183 244.98 114.975ZM250.028 114.975C250.028 116.355 250.211 117.827 250.578 119.207C250.945 120.587 251.496 121.874 252.23 123.07C252.964 124.174 253.974 125.094 255.259 125.83C256.452 126.566 258.012 126.842 259.755 126.842C262.967 126.842 265.445 125.83 267.097 123.806C268.749 121.782 269.575 118.839 269.575 114.975C269.575 113.503 269.391 112.123 269.024 110.652C268.657 109.272 268.106 107.984 267.372 106.88C266.546 105.776 265.537 104.856 264.344 104.12C263.151 103.384 261.591 103.108 259.847 103.108C256.635 103.108 254.157 104.12 252.597 106.052C250.854 108.076 250.028 111.019 250.028 114.975Z" fill="#2F2F2F"/>
<path d="M284.809 99.7046H292.058V93.6332L296.83 92.2533V99.6126H313.073V103.66H296.83V118.011C296.83 120.955 297.564 123.162 298.941 124.634C300.409 126.014 302.428 126.75 305.09 126.75C306.925 126.75 308.485 126.382 309.862 125.738C311.238 125.002 312.431 124.266 313.532 123.438L315.092 127.026C313.716 128.13 311.972 129.05 310.045 129.786C308.118 130.522 306.099 130.798 303.988 130.798C302.336 130.798 300.868 130.522 299.4 130.062C297.932 129.602 296.647 128.866 295.637 127.854C294.628 126.842 293.71 125.646 292.976 124.082C292.334 122.518 291.967 120.771 291.967 118.655V103.568H284.717V99.7046H284.809Z" fill="#2F2F2F"/>
<path d="M326.472 114.975C326.472 110.1 327.756 106.144 330.326 103.292C332.896 100.44 336.566 98.9686 341.247 98.9686C343.816 98.9686 346.019 99.4286 347.854 100.257C349.689 101.084 351.249 102.188 352.442 103.66C353.635 105.04 354.553 106.788 355.104 108.72C355.654 110.652 356.021 112.767 356.021 114.975C356.021 117.459 355.654 119.575 355.012 121.598C354.369 123.53 353.452 125.278 352.167 126.658C350.882 128.038 349.322 129.142 347.487 129.878C345.651 130.614 343.541 130.982 341.155 130.982C338.677 130.982 336.475 130.522 334.547 129.694C332.712 128.866 331.152 127.762 329.959 126.29C328.766 124.91 327.848 123.162 327.206 121.231C326.839 119.299 326.472 117.183 326.472 114.975ZM331.519 114.975C331.519 116.355 331.703 117.827 332.07 119.207C332.437 120.587 332.987 121.874 333.721 123.07C334.456 124.174 335.465 125.094 336.75 125.83C337.943 126.566 339.503 126.842 341.247 126.842C344.458 126.842 346.936 125.83 348.588 123.806C350.24 121.782 351.066 118.839 351.066 114.975C351.066 113.503 350.882 112.123 350.515 110.652C350.148 109.272 349.598 107.984 348.863 106.88C348.037 105.776 347.028 104.856 345.835 104.12C344.642 103.384 343.082 103.108 341.338 103.108C338.126 103.108 335.649 104.12 334.089 106.052C332.345 108.076 331.519 111.019 331.519 114.975Z" fill="#2F2F2F"/>
<path d="M391.077 104.396C390.159 104.028 389.15 103.752 388.049 103.568C386.947 103.384 385.938 103.2 384.837 103.2C380.891 103.2 377.862 104.12 375.935 106.052C374.008 107.892 372.998 110.928 372.998 114.975C372.998 116.815 373.274 118.379 373.824 119.759C374.375 121.139 375.201 122.335 376.302 123.346C377.312 124.358 378.596 125.094 380.065 125.646C381.533 126.198 383.185 126.474 384.928 126.474C386.856 126.474 388.691 126.106 390.526 125.462C392.362 124.818 393.83 123.898 395.023 122.886L397.134 126.382C396.583 126.842 395.849 127.394 395.023 127.946C394.197 128.498 393.188 128.958 392.086 129.418C390.985 129.878 389.7 130.246 388.416 130.522C387.039 130.798 385.571 130.982 384.011 130.982C381.349 130.982 379.055 130.614 377.036 129.878C375.017 129.142 373.366 128.038 371.989 126.658C370.612 125.278 369.603 123.53 368.961 121.599C368.226 119.667 367.951 117.459 367.951 115.067C367.951 112.491 368.318 110.192 369.052 108.26C369.787 106.236 370.796 104.58 372.081 103.292C373.457 101.912 375.017 100.901 376.945 100.257C378.872 99.5207 380.982 99.1527 383.368 99.1527C386.397 99.1527 388.783 99.4287 390.71 99.9806C392.637 100.533 394.197 101.085 395.482 101.728L395.39 101.912V110.376H390.985V104.396H391.077Z" fill="#2F2F2F"/>
<path d="M409.247 114.975C409.247 110.1 410.532 106.144 413.101 103.292C415.671 100.44 419.342 98.9686 424.022 98.9686C426.591 98.9686 428.794 99.4286 430.629 100.257C432.465 101.084 434.025 102.188 435.218 103.66C436.411 105.04 437.328 106.788 437.879 108.72C438.43 110.652 438.797 112.767 438.797 114.975C438.797 117.459 438.43 119.575 437.787 121.598C437.145 123.53 436.227 125.278 434.942 126.658C433.658 128.038 432.098 129.142 430.262 129.878C428.427 130.614 426.316 130.982 423.93 130.982C421.452 130.982 419.25 130.522 417.323 129.694C415.487 128.866 413.927 127.762 412.734 126.29C411.541 124.91 410.624 123.162 409.981 121.231C409.522 119.299 409.247 117.183 409.247 114.975ZM414.294 114.975C414.294 116.355 414.478 117.827 414.845 119.207C415.212 120.587 415.763 121.874 416.497 123.07C417.231 124.174 418.24 125.094 419.525 125.83C420.718 126.566 422.278 126.842 424.022 126.842C427.234 126.842 429.712 125.83 431.363 123.806C433.015 121.782 433.841 118.839 433.841 114.975C433.841 113.503 433.658 112.123 433.291 110.652C432.924 109.272 432.373 107.984 431.639 106.88C430.813 105.776 429.803 104.856 428.61 104.12C427.417 103.384 425.857 103.108 424.114 103.108C420.902 103.108 418.424 104.12 416.864 106.052C415.12 108.076 414.294 111.019 414.294 114.975Z" fill="#2F2F2F"/>
<path d="M449.534 87.5618H459.72V120.035C459.72 122.518 460.179 124.266 461.005 125.278C461.831 126.29 463.024 126.842 464.676 126.842C465.777 126.842 466.878 126.658 467.887 126.198C468.897 125.83 470.09 125.094 471.283 124.082L473.485 127.394C472.843 127.946 472.109 128.498 471.375 128.958C470.641 129.418 469.815 129.786 468.989 130.062C468.163 130.338 467.337 130.614 466.511 130.798C465.685 130.982 464.951 131.074 464.217 131.074C462.748 131.074 461.372 130.89 460.179 130.522C458.986 130.154 457.976 129.51 457.242 128.682C456.508 127.854 455.866 126.658 455.407 125.278C455.04 123.898 454.764 122.15 454.764 120.035V91.7014H449.442V87.5618H449.534Z" fill="#2F2F2F"/>
<path d="M0 80.3871V91.0831L28.042 107.211V101.863V96.5146L0 80.3871Z" fill="#00CB8C"/>
<path d="M0 58.9951V69.6911L18.6387 80.3871V75.0391V69.6911L0 58.9951Z" fill="#00CB8C"/>
<path d="M83.79 96.5146V101.863V107.211L111.748 91.0831V80.3871L83.79 96.5146Z" fill="#00CB8C"/>
<path d="M93.1094 69.6911V75.0391V80.3871L111.748 69.6911V58.9951L93.1094 69.6911Z" fill="#00CB8C"/>
<path d="M102.429 42.8675L93.1094 48.2155L83.7901 53.5635V53.6471L74.5547 58.9115V58.9951L65.3193 64.3431L56 69.6911L0 37.5195V48.2155L46.5967 75.0391L56 80.3871L65.3193 75.0391L74.6387 69.6911V69.6075L83.8741 64.2595V64.176L93.1094 58.9115L102.429 53.5635L111.748 48.2155V37.5195L102.429 42.8675Z" fill="#00CB8C"/>
<path d="M102.429 21.392L93.1094 26.74L83.7901 32.088V32.1715H83.874L74.5547 37.5195L65.2354 42.8675L74.5547 48.2155L83.874 42.8675L93.1934 37.5195L102.513 32.088H102.429L111.748 26.74L102.429 21.392Z" fill="#00CB8C"/>
<path d="M0 26.8235L18.6387 37.5195L27.958 42.8675L46.5967 53.5635L55.916 58.9115L65.2354 53.5635L9.4033 21.392L0 26.8235Z" fill="#00CB8C"/>
<path d="M19.0586 16.1276L28.1261 21.3084L27.9581 21.392L37.2775 26.74L74.5549 5.348L65.2355 0L37.6133 16.044L28.3779 10.7796L19.0586 16.1276Z" fill="#00CB8C"/>
<path d="M65.2353 21.392L55.916 26.74L46.5127 32.088L55.916 37.436L65.1514 32.088L65.2353 32.1716L74.4707 26.8236L74.5547 26.9072L83.7901 21.5592H83.874V21.6427V21.5592L93.1934 16.2112L83.874 10.8632L74.6386 16.2112L74.5547 16.1276L65.3193 21.4756L65.2353 21.392Z" fill="#00CB8C"/>
<path d="M74.6387 134.034L55.8321 144.73L55.916 144.814L46.6807 150.078L37.3613 155.426L46.6807 160.774L56 155.51L65.3194 150.078H65.2354L74.4708 144.73L83.7901 150.078L93.1095 144.73L74.6387 134.034Z" fill="#333333"/>
<path d="M102.597 128.603L93.2774 123.255L83.958 117.907L74.6387 112.559V101.863V91.0831L83.958 85.7351V75.0391L74.6387 80.3871L65.3193 85.7351L56 91.0831L46.6807 85.7351L37.3613 80.3871L28.042 75.0391V85.7351L37.3613 91.0831V101.863V112.559L28.042 117.907L0 134.034L9.31934 139.382L27.958 128.603H28.042L37.3613 123.255L46.6807 128.603V128.686L18.6387 144.73L27.958 150.078L74.6387 123.255L83.958 128.603L93.1934 133.951L93.1094 134.034L102.429 139.382L111.748 134.034L102.513 128.686L102.597 128.603Z" fill="#333333"/>
</svg>
